<?xml version="1.0" encoding="UTF-8"?><svg id="b" xmlns="http://www.w3.org/2000/svg" viewBox="0 0 283.42 283.39"><g id="c"><g id="d"><path id="e" d="M141.7,23.59c-23.91,.03-43.29,19.41-43.32,43.32,.02,23.91,19.41,43.3,43.32,43.32,23.91-.03,43.29-19.41,43.32-43.32-.03-23.91-19.41-43.29-43.32-43.32Zm0,110.23c-36.94-.04-66.87-29.98-66.91-66.91C74.83,29.98,104.76,.04,141.7,0c36.94,.04,66.87,29.98,66.91,66.91-.04,36.94-29.98,66.87-66.91,66.91h0"/><path id="f" d="M24.18,259.79h235.04c-2.62-27.73-14.93-53.66-34.76-73.22-13.77-13.31-32.21-20.7-51.36-20.59h-62.82c-19.15-.12-37.59,7.27-51.36,20.59-19.83,19.57-32.13,45.49-34.76,73.22Zm247.42,23.6H11.8c-6.5,.01-11.79-5.25-11.8-11.76,0-.01,0-.03,0-.04-.12-38.23,15.12-74.91,42.3-101.79,18.2-17.7,42.62-27.56,68.01-27.46h62.79c25.39-.11,49.82,9.75,68.01,27.46,27.18,26.88,42.43,63.56,42.3,101.79,.01,6.5-5.25,11.79-11.76,11.8h-.04"/></g></g></svg>