<svg xmlns="http://www.w3.org/2000/svg" xmlns:xlink="http://www.w3.org/1999/xlink" version="1.1" id="katman_1" x="0px" y="0px" style="enable-background:new 0 0 600 450;" xml:space="preserve" viewBox="100.7 50.55 327.35 327.35">
<style type="text/css">
	.st0{fill:url(#instagram_00000129911218506607390930000014377579429717921923_);}
	.st1{fill:#FFFFFF;}
</style>
<linearGradient id="instagram_00000078758979328312957180000011599066522073493689_" gradientUnits="userSpaceOnUse" x1="-1260.4905" y1="427.0501" x2="-1267.4628" y2="417.7912" gradientTransform="matrix(32.0688 0 0 -32.0693 40796.668 13763.5254)">
	<stop offset="0" style="stop-color:#7D4292"/>
	<stop offset="0.551" style="stop-color:#EC663A"/>
	<stop offset="1" style="stop-color:#FBBD3F"/>
</linearGradient>
<path id="instagram" style="fill:url(#instagram_00000078758979328312957180000011599066522073493689_);" d="M325.7,146.1  c-8.4-8.7-21.8-10.3-45.2-10.3c-4,0-8.3,0.1-12.8,0.1c-4,0.1-8.2,0.1-12.7,0.1h-2.1c-32,0-47.7,0.3-56.8,9.9  c-9.1,9.6-10.6,27.9-10.6,65.7c0,73.6,2.1,75.7,75.6,75.7c3.7,0,7.4,0,10.9,0.1s6.8,0.1,10,0.1c29.7,0,52.5-2.8,54.3-38.6  C339,188.3,338.2,159.1,325.7,146.1z M310.3,173.6c-6.1,0-11.1-5-11.1-11.1s5-11.1,11.1-11.1c3,0,5.8,1.2,7.8,3.2s3.3,4.8,3.3,7.9  C321.4,168.6,316.4,173.6,310.3,173.6z M325.7,146.1c-8.4-8.7-21.8-10.3-45.2-10.3c-4,0-8.3,0.1-12.8,0.1c-4,0.1-8.2,0.1-12.7,0.1  h-2.1c-32,0-47.7,0.3-56.8,9.9c-9.1,9.6-10.6,27.9-10.6,65.7c0,73.6,2.1,75.7,75.6,75.7c3.7,0,7.4,0,10.9,0.1s6.8,0.1,10,0.1  c29.7,0,52.5-2.8,54.3-38.6C339,188.3,338.2,159.1,325.7,146.1z M310.3,173.6c-6.1,0-11.1-5-11.1-11.1s5-11.1,11.1-11.1  c3,0,5.8,1.2,7.8,3.2s3.3,4.8,3.3,7.9C321.4,168.6,316.4,173.6,310.3,173.6z M325.7,146.1c-8.4-8.7-21.8-10.3-45.2-10.3  c-4,0-8.3,0.1-12.8,0.1c-4,0.1-8.2,0.1-12.7,0.1h-2.1c-32,0-47.7,0.3-56.8,9.9c-9.1,9.6-10.6,27.9-10.6,65.7  c0,73.6,2.1,75.7,75.6,75.7c3.7,0,7.4,0,10.9,0.1s6.8,0.1,10,0.1c29.7,0,52.5-2.8,54.3-38.6C339,188.3,338.2,159.1,325.7,146.1z   M310.3,173.6c-6.1,0-11.1-5-11.1-11.1s5-11.1,11.1-11.1c3,0,5.8,1.2,7.8,3.2s3.3,4.8,3.3,7.9C321.4,168.6,316.4,173.6,310.3,173.6z   M325.7,146.1c-8.4-8.7-21.8-10.3-45.2-10.3c-4,0-8.3,0.1-12.8,0.1c-4,0.1-8.2,0.1-12.7,0.1h-2.1c-32,0-47.7,0.3-56.8,9.9  c-9.1,9.6-10.6,27.9-10.6,65.7c0,73.6,2.1,75.7,75.6,75.7c3.7,0,7.4,0,10.9,0.1s6.8,0.1,10,0.1c29.7,0,52.5-2.8,54.3-38.6  C339,188.3,338.2,159.1,325.7,146.1z M310.3,173.6c-6.1,0-11.1-5-11.1-11.1s5-11.1,11.1-11.1c3,0,5.8,1.2,7.8,3.2s3.3,4.8,3.3,7.9  C321.4,168.6,316.4,173.6,310.3,173.6z M379.5,97.7c-64.2-63.4-167.6-62.8-231,1.4c-30.6,30.6-47.8,72.2-47.8,115.5  c0,90.2,73.1,163.3,163.3,163.3c43.3,0.2,84.9-17.1,115.5-47.8l1.4-1.4C444.3,264.5,443.7,161.1,379.5,97.7z M348.4,272.2  c-11.5,29.6-39,32-68.5,32c-3.1,0-6.2,0-9.4-0.1c-3.2-0.1-6.3-0.1-9.5-0.1c-3,0-6.1,0.1-9,0.1h-8.9c-31.2,0-58-2.4-69.5-31.9  c-4.5-17.2-6.2-35-4.9-52.8v-16.7c-1.4-17.3,0.3-34.7,4.9-51.4c11.5-29.5,38.2-31.9,69.4-31.9h37.8c23.5,0,42.6,1.2,57,15.6  c15.8,15.8,15.7,36.1,15.5,66.8V221C354.7,238.2,353,255.5,348.4,272.2z M280.5,135.8c-4,0-8.3,0.1-12.8,0.1  c-4,0.1-8.2,0.1-12.7,0.1h-2.1c-32,0-47.7,0.3-56.8,9.9c-9.1,9.6-10.6,27.9-10.6,65.7c0,73.6,2.1,75.7,75.6,75.7  c3.7,0,7.4,0,10.9,0.1s6.8,0.1,10,0.1c29.7,0,52.5-2.8,54.3-38.6c2.7-60.6,1.9-89.8-10.6-102.8C317.3,137.4,303.9,135.8,280.5,135.8  z M310.3,173.6c-6.1,0-11.1-5-11.1-11.1s5-11.1,11.1-11.1c3,0,5.8,1.2,7.8,3.2s3.3,4.8,3.3,7.9C321.4,168.6,316.4,173.6,310.3,173.6  z M325.7,146.1c-8.4-8.7-21.8-10.3-45.2-10.3c-4,0-8.3,0.1-12.8,0.1c-4,0.1-8.2,0.1-12.7,0.1h-2.1c-32,0-47.7,0.3-56.8,9.9  c-9.1,9.6-10.6,27.9-10.6,65.7c0,73.6,2.1,75.7,75.6,75.7c3.7,0,7.4,0,10.9,0.1s6.8,0.1,10,0.1c29.7,0,52.5-2.8,54.3-38.6  C339,188.3,338.2,159.1,325.7,146.1z M310.3,173.6c-6.1,0-11.1-5-11.1-11.1s5-11.1,11.1-11.1c3,0,5.8,1.2,7.8,3.2s3.3,4.8,3.3,7.9  C321.4,168.6,316.4,173.6,310.3,173.6z M325.7,146.1c-8.4-8.7-21.8-10.3-45.2-10.3c-4,0-8.3,0.1-12.8,0.1c-4,0.1-8.2,0.1-12.7,0.1  h-2.1c-32,0-47.7,0.3-56.8,9.9c-9.1,9.6-10.6,27.9-10.6,65.7c0,73.6,2.1,75.7,75.6,75.7c3.7,0,7.4,0,10.9,0.1s6.8,0.1,10,0.1  c29.7,0,52.5-2.8,54.3-38.6C339,188.3,338.2,159.1,325.7,146.1z M310.3,173.6c-6.1,0-11.1-5-11.1-11.1s5-11.1,11.1-11.1  c3,0,5.8,1.2,7.8,3.2s3.3,4.8,3.3,7.9C321.4,168.6,316.4,173.6,310.3,173.6z M261,181c-8.7-0.3-17.1,3.2-22.9,9.6  c-5,5.8-7.7,13.4-7.6,21.1v2.6c0.6,16.2,14.3,28.8,30.5,28.2c8.7,0.3,17.1-3.2,22.9-9.6c5-5.8,7.7-13.4,7.6-21.1v-2.6  C290.9,193,277.2,180.4,261,181z M261,181c-8.7-0.3-17.1,3.2-22.9,9.6c-5,5.8-7.7,13.4-7.6,21.1v2.6c0.6,16.2,14.3,28.8,30.5,28.2  c8.7,0.3,17.1-3.2,22.9-9.6c5-5.8,7.7-13.4,7.6-21.1v-2.6C290.9,193,277.2,180.4,261,181z M261,181c-8.7-0.3-17.1,3.2-22.9,9.6  c-5,5.8-7.7,13.4-7.6,21.1v2.6c0.6,16.2,14.3,28.8,30.5,28.2c8.7,0.3,17.1-3.2,22.9-9.6c5-5.8,7.7-13.4,7.6-21.1v-2.6  C290.9,193,277.2,180.4,261,181z M261,181c-8.7-0.3-17.1,3.2-22.9,9.6c-5,5.8-7.7,13.4-7.6,21.1v2.6c0.6,16.2,14.3,28.8,30.5,28.2  c8.7,0.3,17.1-3.2,22.9-9.6c5-5.8,7.7-13.4,7.6-21.1v-2.6C290.9,193,277.2,180.4,261,181z M261,181c-8.7-0.3-17.1,3.2-22.9,9.6  c-5,5.8-7.7,13.4-7.6,21.1v2.6c0.6,16.2,14.3,28.8,30.5,28.2c8.7,0.3,17.1-3.2,22.9-9.6c5-5.8,7.7-13.4,7.6-21.1v-2.6  C290.9,193,277.2,180.4,261,181z M261,181c-8.7-0.3-17.1,3.2-22.9,9.6c-5,5.8-7.7,13.4-7.6,21.1v2.6c0.6,16.2,14.3,28.8,30.5,28.2  c8.7,0.3,17.1-3.2,22.9-9.6c5-5.8,7.7-13.4,7.6-21.1v-2.6C290.9,193,277.2,180.4,261,181z M261,181c-8.7-0.3-17.1,3.2-22.9,9.6  c-5,5.8-7.7,13.4-7.6,21.1v2.6c0.6,16.2,14.3,28.8,30.5,28.2c8.7,0.3,17.1-3.2,22.9-9.6c5-5.8,7.7-13.4,7.6-21.1v-2.6  C290.9,193,277.2,180.4,261,181z M261,181c-8.7-0.3-17.1,3.2-22.9,9.6c-5,5.8-7.7,13.4-7.6,21.1v2.6c0.6,16.2,14.3,28.8,30.5,28.2  c8.7,0.3,17.1-3.2,22.9-9.6c5-5.8,7.7-13.4,7.6-21.1v-2.6C290.9,193,277.2,180.4,261,181z M261,181c-8.7-0.3-17.1,3.2-22.9,9.6  c-5,5.8-7.7,13.4-7.6,21.1v2.6c0.6,16.2,14.3,28.8,30.5,28.2c8.7,0.3,17.1-3.2,22.9-9.6c5-5.8,7.7-13.4,7.6-21.1v-2.6  C290.9,193,277.2,180.4,261,181z M261,181c-8.7-0.3-17.1,3.2-22.9,9.6c-5,5.8-7.7,13.4-7.6,21.1v2.6c0.6,16.2,14.3,28.8,30.5,28.2  c8.7,0.3,17.1-3.2,22.9-9.6c5-5.8,7.7-13.4,7.6-21.1v-2.6C290.9,193,277.2,180.4,261,181z M261,181c-8.7-0.3-17.1,3.2-22.9,9.6  c-5,5.8-7.7,13.4-7.6,21.1v2.6c0.6,16.2,14.3,28.8,30.5,28.2c8.7,0.3,17.1-3.2,22.9-9.6c5-5.8,7.7-13.4,7.6-21.1v-2.6  C290.9,193,277.2,180.4,261,181z M261,181c-8.7-0.3-17.1,3.2-22.9,9.6c-5,5.8-7.7,13.4-7.6,21.1v2.6c0.6,16.2,14.3,28.8,30.5,28.2  c8.7,0.3,17.1-3.2,22.9-9.6c5-5.8,7.7-13.4,7.6-21.1v-2.6C290.9,193,277.2,180.4,261,181z M261,181c-8.7-0.3-17.1,3.2-22.9,9.6  c-5,5.8-7.7,13.4-7.6,21.1v2.6c0.6,16.2,14.3,28.8,30.5,28.2c8.7,0.3,17.1-3.2,22.9-9.6c5-5.8,7.7-13.4,7.6-21.1v-2.6  C290.9,193,277.2,180.4,261,181z M261,181c-8.7-0.3-17.1,3.2-22.9,9.6c-5,5.8-7.7,13.4-7.6,21.1v2.6c0.6,16.2,14.3,28.8,30.5,28.2  c8.7,0.3,17.1-3.2,22.9-9.6c5-5.8,7.7-13.4,7.6-21.1v-2.6C290.9,193,277.2,180.4,261,181z M261,181c-8.7-0.3-17.1,3.2-22.9,9.6  c-5,5.8-7.7,13.4-7.6,21.1v2.6c0.6,16.2,14.3,28.8,30.5,28.2c8.7,0.3,17.1-3.2,22.9-9.6c5-5.8,7.7-13.4,7.6-21.1v-2.6  C290.9,193,277.2,180.4,261,181z M261,181c-8.7-0.3-17.1,3.2-22.9,9.6c-5,5.8-7.7,13.4-7.6,21.1v2.6c0.6,16.2,14.3,28.8,30.5,28.2  c8.7,0.3,17.1-3.2,22.9-9.6c5-5.8,7.7-13.4,7.6-21.1v-2.6C290.9,193,277.2,180.4,261,181z M261,181c-8.7-0.3-17.1,3.2-22.9,9.6  c-5,5.8-7.7,13.4-7.6,21.1v2.6c0.6,16.2,14.3,28.8,30.5,28.2c8.7,0.3,17.1-3.2,22.9-9.6c5-5.8,7.7-13.4,7.6-21.1v-2.6  C290.9,193,277.2,180.4,261,181z M261,181c-8.7-0.3-17.1,3.2-22.9,9.6c-5,5.8-7.7,13.4-7.6,21.1v2.6c0.6,16.2,14.3,28.8,30.5,28.2  c8.7,0.3,17.1-3.2,22.9-9.6c5-5.8,7.7-13.4,7.6-21.1v-2.6C290.9,193,277.2,180.4,261,181z M261,181c-8.7-0.3-17.1,3.2-22.9,9.6  c-5,5.8-7.7,13.4-7.6,21.1v2.6c0.6,16.2,14.3,28.8,30.5,28.2c8.7,0.3,17.1-3.2,22.9-9.6c5-5.8,7.7-13.4,7.6-21.1v-2.6  C290.9,193,277.2,180.4,261,181z M261,181c-8.7-0.3-17.1,3.2-22.9,9.6c-5,5.8-7.7,13.4-7.6,21.1v2.6c0.6,16.2,14.3,28.8,30.5,28.2  c8.7,0.3,17.1-3.2,22.9-9.6c5-5.8,7.7-13.4,7.6-21.1v-2.6C290.9,193,277.2,180.4,261,181z M261,181c-8.7-0.3-17.1,3.2-22.9,9.6  c-5,5.8-7.7,13.4-7.6,21.1v2.6c0.6,16.2,14.3,28.8,30.5,28.2c8.7,0.3,17.1-3.2,22.9-9.6c5-5.8,7.7-13.4,7.6-21.1v-2.6  C290.9,193,277.2,180.4,261,181z M261,181c-8.7-0.3-17.1,3.2-22.9,9.6c-5,5.8-7.7,13.4-7.6,21.1v2.6c0.6,16.2,14.3,28.8,30.5,28.2  c8.7,0.3,17.1-3.2,22.9-9.6c5-5.8,7.7-13.4,7.6-21.1v-2.6C290.9,193,277.2,180.4,261,181z M261,181c-8.7-0.3-17.1,3.2-22.9,9.6  c-5,5.8-7.7,13.4-7.6,21.1v2.6c0.6,16.2,14.3,28.8,30.5,28.2c8.7,0.3,17.1-3.2,22.9-9.6c5-5.8,7.7-13.4,7.6-21.1v-2.6  C290.9,193,277.2,180.4,261,181z M261,181c-8.7-0.3-17.1,3.2-22.9,9.6c-5,5.8-7.7,13.4-7.6,21.1v2.6c0.6,16.2,14.3,28.8,30.5,28.2  c8.7,0.3,17.1-3.2,22.9-9.6c5-5.8,7.7-13.4,7.6-21.1v-2.6C290.9,193,277.2,180.4,261,181z M261,181c-8.7-0.3-17.1,3.2-22.9,9.6  c-5,5.8-7.7,13.4-7.6,21.1v2.6c0.6,16.2,14.3,28.8,30.5,28.2c8.7,0.3,17.1-3.2,22.9-9.6c5-5.8,7.7-13.4,7.6-21.1v-2.6  C290.9,193,277.2,180.4,261,181z M261,181c-8.7-0.3-17.1,3.2-22.9,9.6c-5,5.8-7.7,13.4-7.6,21.1v2.6c0.6,16.2,14.3,28.8,30.5,28.2  c8.7,0.3,17.1-3.2,22.9-9.6c5-5.8,7.7-13.4,7.6-21.1v-2.6C290.9,193,277.2,180.4,261,181z M261,181c-8.7-0.3-17.1,3.2-22.9,9.6  c-5,5.8-7.7,13.4-7.6,21.1v2.6c0.6,16.2,14.3,28.8,30.5,28.2c8.7,0.3,17.1-3.2,22.9-9.6c5-5.8,7.7-13.4,7.6-21.1v-2.6  C290.9,193,277.2,180.4,261,181z M261,181c-8.7-0.3-17.1,3.2-22.9,9.6c-5,5.8-7.7,13.4-7.6,21.1v2.6c0.6,16.2,14.3,28.8,30.5,28.2  c8.7,0.3,17.1-3.2,22.9-9.6c5-5.8,7.7-13.4,7.6-21.1v-2.6C290.9,193,277.2,180.4,261,181z M261,181c-8.7-0.3-17.1,3.2-22.9,9.6  c-5,5.8-7.7,13.4-7.6,21.1v2.6c0.6,16.2,14.3,28.8,30.5,28.2c8.7,0.3,17.1-3.2,22.9-9.6c5-5.8,7.7-13.4,7.6-21.1v-2.6  C290.9,193,277.2,180.4,261,181z M261,181c-8.7-0.3-17.1,3.2-22.9,9.6c-5,5.8-7.7,13.4-7.6,21.1v2.6c0.6,16.2,14.3,28.8,30.5,28.2  c8.7,0.3,17.1-3.2,22.9-9.6c5-5.8,7.7-13.4,7.6-21.1v-2.6C290.9,193,277.2,180.4,261,181z M261,181c-8.7-0.3-17.1,3.2-22.9,9.6  c-5,5.8-7.7,13.4-7.6,21.1v2.6c0.6,16.2,14.3,28.8,30.5,28.2c8.7,0.3,17.1-3.2,22.9-9.6c5-5.8,7.7-13.4,7.6-21.1v-2.6  C290.9,193,277.2,180.4,261,181z M261,181c-8.7-0.3-17.1,3.2-22.9,9.6c-5,5.8-7.7,13.4-7.6,21.1v2.6c0.6,16.2,14.3,28.8,30.5,28.2  c8.7,0.3,17.1-3.2,22.9-9.6c5-5.8,7.7-13.4,7.6-21.1v-2.6C290.9,193,277.2,180.4,261,181z"/>
<path class="st1" d="M294.5,178.2c-8.5-8.6-20.4-13.9-33.5-13.9c-26.2,0-47.4,21.2-47.4,47.4s21.2,47.4,47.4,47.4  s47.4-21.2,47.4-47.4C308.4,198.6,303.1,186.8,294.5,178.2z M291.5,211.8c0.1,7.7-2.6,15.3-7.6,21.1c-5.8,6.4-14.2,9.9-22.9,9.6  c-16.2,0.6-29.9-12-30.5-28.2v-2.6c-0.1-7.7,2.6-15.3,7.6-21.1c5.8-6.4,14.2-9.9,22.9-9.6c16.2-0.6,29.9,12,30.5,28.2V211.8z"/>
<path class="st1" d="M353.3,221v-19.2c0.2-30.7,0.3-51-15.5-66.8c-14.4-14.4-33.5-15.6-57-15.6H243c-31.2,0-57.9,2.4-69.4,31.9  c-4.6,16.7-6.3,34.1-4.9,51.4v16.7c-1.3,17.8,0.4,35.6,4.9,52.8c11.5,29.5,38.3,31.9,69.5,31.9h8.9c2.9,0,6-0.1,9-0.1  c3.2,0,6.3,0,9.5,0.1s6.3,0.1,9.4,0.1c29.5,0,57-2.4,68.5-32C353,255.5,354.7,238.2,353.3,221z M336.3,248.9  c-1.8,35.8-24.6,38.6-54.3,38.6c-3.2,0-6.5,0-10-0.1s-7.2-0.1-10.9-0.1c-73.5,0-75.6-2.1-75.6-75.7c0-37.8,1.5-56.1,10.6-65.7  s24.8-9.9,56.8-9.9h2.1c4.5,0,8.7,0,12.7-0.1c4.5,0,8.8-0.1,12.8-0.1c23.4,0,36.8,1.6,45.2,10.3C338.2,159.1,339,188.3,336.3,248.9z  "/>
<path class="st1" d="M321.4,162.5c0,6.1-5,11.1-11.1,11.1s-11.1-5-11.1-11.1s5-11.1,11.1-11.1c3,0,5.8,1.2,7.8,3.2  C320.2,156.6,321.4,159.4,321.4,162.5z"/>
</svg>